<svg xmlns="http://www.w3.org/2000/svg" viewBox="0 0 458 352"><path fill="#766458" d="M152.3 56l-2.8 5h-2.8l-.8 1.4h2.7l-6 10.4c-1.3 2.2-.4 4.2 2 4.2 1.8 0 3.7-1.3 5.6-3 0 3.8 5.3 4.5 8.6.4h.6c1.8 0 4.7-1 6.2-2.9-.2-.4-.7-.8-1.1-1l-.2.2a6.5 6.5 0 0 1-4.6 2.2l2.9-4.8c1.8-3.1.1-6.1-2.7-6.1-2.3 0-4.1 1-5.9 3.9l-1.5 2.6-1.2 2-.1.2c-2.2 2.5-4.3 4.5-5.7 4.5-.7 0-1-.5-.3-1.6l6.4-11.2h2.5l.9-1.4h-2.5l2.8-5zm7.5 8c1 0 1.5 1.2.5 3l-2.2 3.7h-.2c-1 0-1.8.8-1.8 1.8l.3 1c-1.4 2.4-4.9 2-3-1.1l2.2-4 1.5-2.4c.9-1.5 2-2.1 2.7-2zm22-8l-2.9 5h-2.7l-.9 1.4h2.8l-6 10.4c-1.4 2.2-.5 4.2 2 4.2 1.2 0 2.5-.6 3.8-1.6l-.7 1.3h3l4.6-7.8c4.6-5.8 6.7-5 5.4-2.9l-4 6.8C185 75 186 77 188.4 77c1.8 0 3.8-1.3 5.7-3.2.2 1.9 1.7 3.2 4.1 3.2 3.4 0 6.8-2.6 9.3-5.5-.2-.4-.7-.8-1.1-1l-.2.2c-2.2 2.5-5 4.5-7 4.5s-3-1.2-1.7-3.6l.3-.5c2 .8 5.6.5 8-3.4l.3-.8c1.7-2.7.1-4.8-2.4-4.8a6.4 6.4 0 0 0-5.6 3.5l-3 5-.1.1c-2.2 2.5-4.3 4.5-5.7 4.5-.6 0-1-.5-.3-1.6l4.3-7.6c1.3-2.3.1-3.9-1.6-3.9-1.3 0-2.7.7-4.2 2.3l4.8-8.3h-3l-8.4 14.4-.2.2c-2.2 2.5-4.3 4.5-5.6 4.5-.7 0-1-.5-.4-1.6l6.5-11.2h2.5l.8-1.4H182l2.9-5zm21.3 8.3c1 0 1.5.9.5 2.6l-.5.8c-1.4 2.4-3.4 2.4-4.5 2l2-3.4c.7-1.3 1.7-2 2.5-2zm44.3-5.4c-1.7 1.5-1.9 3.2-.8 4.6l.3.3c-1.4 1.9-3.2 4.4-5.1 6.7l-.2.2A6.5 6.5 0 0 1 237 73l2.9-4.8c1.8-3.1.1-6.1-2.7-6.1-2.4 0-4.2 1-5.9 3.9l-1.5 2.6-1.2 2-.2.2a20.1 20.1 0 0 1-7 5.7l6.8-11.4h-1.8c0-1.3-1.3-2.9-3.2-2.9-1.6 0-3.9 1.3-5.1 3.5l-4.3 7.2c-1.3 2.2-.4 4.2 2 4.2 1 0 2-.3 3-1l-.9 1.4c-4 1.3-6.6 2.9-6.6 5.1 0 3 4.4 3.5 6.6-.2l2.3-3.9c2.4-.7 4.8-2.1 7.2-4.5 0 3.9 5.4 4.6 8.7.5h.6c1.8 0 4.7-1 6.2-2.9 1.5-1.6 2.6-3.1 5-6.4l.4.5c.4.5.5 1.1.2 1.7l-3.2 5.5c-1.3 2.2-.4 4.2 2 4.2 1.6 0 3.2-1 4.9-2.4 0 1.4.9 2.4 2.6 2.4.8 0 1.9-.3 2.9-1l-.9 1.4c-4 1.3-6.6 2.9-6.6 5.1 0 2.9 4.5 3.5 6.6-.2l2.3-3.9c2.5-.8 4.9-2.2 7.4-4.6.1 1.9 1.7 3.2 4.1 3.2 2.5 0 4.9-1.3 7-3.2-.1 4 5.3 4.7 8.6.6h.7c1 0 2.2-.3 3.3-.8-.8 2 0 3.4 1.7 3.4s3.5-1.5 5-2.8c-.3 1.6.6 2.8 2.5 2.8 2.5 0 5.4-2.6 8-5.5l4.2-5.4c-1.2 3-.5 8.6-3.4 8.6-1 0-1.4-1-1.4-1l-2 1s.6 2.3 3.4 2.3h.9c3-.5 6.1-2.9 8.4-5.5-.2-.4-.7-.9-1.1-1l-.2.2a18.9 18.9 0 0 1-3.7 3.3c1-2.9.8-7.2 2.7-11l-2.3-1.3c-1.3 1.7-4 5.6-6.7 8.8l-.2.2c-2.2 2.5-4.3 4.5-5.6 4.5-.7 0-1-.5-.4-1.6l6.4-11.2h-3l-5.3 9.3c-2.3 2-4.1 3.2-4.7 3-.7-.4 0-1.5.4-2.1l5.9-10.2h-3l-4.8 8-.2.3a6.5 6.5 0 0 1-4.5 2.2l2.8-4.8c1.8-3.1.2-6.1-2.7-6.1-2.3 0-4.1 1-5.8 3.9l-1.5 2.6-1.3 2-.1.2c-2.2 2.5-5 4.5-7.1 4.5-1.9 0-3-1.2-1.6-3.6l.3-.5c2 .8 5.6.5 7.9-3.4l.4-.8c1.7-2.7 0-4.8-2.4-4.8a6.4 6.4 0 0 0-5.6 3.5l-3 5-.1.1a20.1 20.1 0 0 1-7 5.7L267 65h-1.8c0-1.3-1.3-2.9-3.1-2.9-1.7 0-4 1.3-5.2 3.5l-3 4.9-.1.2c-2.2 2.5-4.3 4.5-5.7 4.5-.6 0-1-.5-.3-1.6l3-5.3c1-1.8.6-2.8-.4-4l-1.7-2c-.4-.6-.4-1.2.2-1.7zm-10.3 5c1 .1 1.5 1.3.4 3l-2.2 3.8h-.1c-1 0-1.8.8-1.8 1.8 0 .3.1.7.3 1-1.4 2.4-4.9 2-3.1-1.1l2.3-4 1.4-2.4c1-1.5 2-2.1 2.8-2zm50.2 0c1 .1 1.4 1.3.4 3l-2.2 3.8h-.2c-1 0-1.7.8-1.7 1.8 0 .3 0 .7.3 1-1.5 2.4-5 2-3.1-1.1l2.2-4 1.5-2.4c1-1.5 2-2.1 2.8-2zm-11.7.4c1 0 1.5.9.5 2.6l-.5.8c-1.4 2.4-3.4 2.4-4.5 2l2-3.4c.7-1.3 1.7-2 2.5-2zm-52.4.2c1 0 1.6 1 .8 2.4l-2.3 4c-1.8 2.9-3.6 4.3-5 4.3-.6 0-1-.5-.3-1.6l4.2-7.3c.8-1.2 1.8-1.8 2.6-1.8zm38.9 0c1 0 1.7 1 .8 2.4l-2.3 4c-1.8 2.9-3.6 4.3-4.9 4.3-.7 0-1-.5-.3-1.6l4.2-7.3c.7-1.2 1.7-1.8 2.5-1.8zm-45.4 15l-1.3 2.3c-.7 1.2-1.7 1-1.7.2s.8-1.7 3-2.6zm39 0l-1.4 2.3c-.6 1.2-1.6 1-1.6.2s.7-1.7 3-2.6zM101 67.7h29v2h-29zm227 0h29v2h-29z"/><path fill="#81b3d3" d="M322.7 37.4V45h-20.8V.4h20.8V8h-13.2v10.8H320v7.7h-10.5v10.9zM289.9.4h7.6V45h-7.7v-22l-3 11.4h-7.4l-3-11.4v22h-7.6V.4h7.5l6.8 21.6zM258 8h-5.5v29.4h5.5zm3-7.6c2.5 0 4.7 2 4.7 4.7v35.3c0 2.5-2.2 4.7-4.7 4.7h-11.4a4.7 4.7 0 0 1-4.7-4.7V5c0-2.6 2-4.7 4.7-4.7zm-28 28.2l7.6-1.8v13.6c0 2.5-2.1 4.7-4.6 4.7h-11.5a4.7 4.7 0 0 1-4.7-4.7V5c0-2.6 2.1-4.7 4.7-4.7H236c2.5 0 4.6 2 4.6 4.7v9L233 16V8h-5.6v29.4h5.6zm-16.8 8.8V45H198V.4h7.6v37zm-21.4 0V45H174V.4h20.8V8h-13.2v10.8h10.6v7.7h-10.6v10.9zM162.6.4h7.6L169 45h-14.4l-2-18.5-2 18.5h-14.5L135 .4h7.6l.6 37h.8l4.8-37h7.5l5 37h.7z"/><path fill="#fff" d="M380.7 214l25.5-74h25.2l25.6 74h-20.2l-3.7-13.4h-28.6l-3.8 13.4zm35.7-52.2l-7.6 24.5H429l-7.5-24.5a200.7 200.7 0 0 1-1.2-3.6 85.7 85.7 0 0 1-.8-3.8 10.6 10.6 0 0 1-.6-2.6l-.3 1.3a40.3 40.3 0 0 0-.5 2 42.8 42.8 0 0 1-.8 3.5 49.9 49.9 0 0 1-.8 3.2zM298.7 214v-74h19.5l27.9 38a37.2 37.2 0 0 1 2 3.5 53.5 53.5 0 0 1 2 3.6l1.3 3 1.4 3a23.1 23.1 0 0 0-.3-2.5l-.3-2.4a91.7 91.7 0 0 1-.3-4.8 99.8 99.8 0 0 1-.1-5V140h19.4v74h-19.4l-28.1-38.3c-.8-.9-1.5-2-2.2-3.2a65.8 65.8 0 0 1-2-4 103.3 103.3 0 0 0-1.4-3 51 51 0 0 0-1.2-2.8 111 111 0 0 1 1.3 14.8v36.4zm-88-55c3.6-6.5 8.5-11.5 14.9-15a40.7 40.7 0 0 1 25.5-5 41.1 41.1 0 0 1 8.5 2.2 39.4 39.4 0 0 1 8.1 4c5.5 3.5 9.8 8.3 12.8 14.2a40 40 0 0 1 4.2 23.2 27 27 0 0 1-1 5 36 36 0 0 1-1.5 4.6 37.4 37.4 0 0 1-15.2 17.5 41.8 41.8 0 0 1-21.7 6.2 11.5 11.5 0 0 1-1.6-.2h-1.5a47 47 0 0 1-8-1.4 38 38 0 0 1-7.4-2.9 38.6 38.6 0 0 1-20.3-40.4 43.6 43.6 0 0 1 1.6-6 37 37 0 0 1 2.6-6zm52.8 26.7c.3-.8.5-1.6.6-2.5a14.7 14.7 0 0 0 .6-4.2l.1-1.5a8.5 8.5 0 0 0-.1-1.4v-1.4c-.4-3.3-1.4-6.5-3-9.6a17.8 17.8 0 0 0-6.8-7.2 30.8 30.8 0 0 0-4.6-1.9 24 24 0 0 0-2.3-.3 11.8 11.8 0 0 0-2.3-.2 19.3 19.3 0 0 0-17.9 13.6l-.3.4v.5a18.4 18.4 0 0 0-.5 2.2l-.5 2.2-.2 1.6v3.3c.3 4 1.6 8 3.8 11.7 2.3 3.6 5.5 6 9.5 7.2l1.4.5 1.5.2 1.4.2h1.4c4.1 0 7.8-1.2 11-3.6 3.4-2.4 5.8-5.7 7.2-9.8zM181.4 207c-3.7 2.5-7.6 4.2-11.9 5s-8.5 1.6-12.8 1.8a59.6 59.6 0 0 1-3.8.1h-23.8v-74h25.1l3.6.2c4.2.2 8.3.8 12.3 1.7a30.3 30.3 0 0 1 11.3 5.1c4.3 3 7.7 7 10 12a40.3 40.3 0 0 1 4.3 16.7v3c-.3 5.4-1.6 10.7-4 15.8s-5.8 9.3-10.3 12.6zm-32.4-9.7c.2 0 .5 0 .7.2h4.7c.9 0 1.7 0 2.5-.2a30.6 30.6 0 0 0 5.9-1 15.5 15.5 0 0 0 10.7-9.6 25.7 25.7 0 0 0 1.8-9.7v-1-.8a23.1 23.1 0 0 0-2.2-8.5c-1.2-2.8-2.9-5-5-6.6a13.3 13.3 0 0 0-5.5-2.7 30.7 30.7 0 0 0-6-.8H149zM69 214v-74h45.5v16.2H88.9v13h24v15.7H89v12.5h25.6V214zM9.8 190.1v.2A52 52 0 0 0 17 197c2.7 2 5.8 3 9.2 3.2l.2.1h.3l.3.1h1.3l1-.2a9.7 9.7 0 0 0 3.5-1.4c1.1-.7 2-1.5 2.7-2.5l.2-.5.2-.5a13.9 13.9 0 0 0 .5-2.8c0-2-1-3.8-2.8-5.2a20 20 0 0 0-5.8-3.4 16.8 16.8 0 0 0-2.5-.7 31.4 31.4 0 0 0-2.2-.5H23l-.2-.1A38 38 0 0 1 12 178a16 16 0 0 1-6.9-8.9 100 100 0 0 1-.7-2.4 27.9 27.9 0 0 1-.3-2.7 3.4 3.4 0 0 1-.1-.8v-2.8l.3-1.9a25.5 25.5 0 0 1 1.2-4.6c.5-1.6 1.2-3 2-4.2 2.6-4.1 5.7-7 9.6-8.8a29.6 29.6 0 0 1 15.3-2.5 46.3 46.3 0 0 1 3.3.4 39.7 39.7 0 0 1 8.2 2.3c2.8 1 5.4 2.4 7.7 3.8l-6.4 14.3a44.6 44.6 0 0 0-6.6-4 16.6 16.6 0 0 0-7.6-1.8h-.9c-1.8.3-3.4 1-5 2.5-1.5 1.3-2.3 2.7-2.3 4.3v.7l.3.6c.2.6.5 1 .9 1.6a10 10 0 0 0 5 3.2 202.6 202.6 0 0 0 12.8 3.7 18 18 0 0 1 9.8 7.8c2.2 3.6 3.3 7.4 3.4 11.4v.6c0 .4 0 .9-.2 1.4v1.2c-.4 4-1.7 7.9-3.9 11.5-2 3.7-5 6.5-8.5 8.4a37 37 0 0 1-4 1.6 82.5 82.5 0 0 1-4.2 1 26.9 26.9 0 0 1-3.5.5 25.5 25.5 0 0 1-3.4.3H26A39 39 0 0 1 .4 205zm341.6 147.1a2.4 2.4 0 0 1 .6-1.6 2.6 2.6 0 0 1 .9-.6c.3-.2.6-.2 1-.2.5 0 1 0 1.3.2.5.2.8.4 1.1.8.3.2.4.6.6 1l.2 1.3a6 6 0 0 1-.5 2.3 6 6 0 0 1-1.3 2 5.7 5.7 0 0 1-.8.6 9.3 9.3 0 0 1-1 .6l-.6.3a8.3 8.3 0 0 0-.4.2l-1.4-2 .9-.3.8-.6a3 3 0 0 0 .7-.7c.2-.3.3-.7.3-1-.6 0-1.2-.2-1.7-.6a2 2 0 0 1-.7-1.7m7.8 0a2.5 2.5 0 0 1 .7-1.6 2.6 2.6 0 0 1 1.9-.8 2.9 2.9 0 0 1 2.4 1l.5 1 .2 1.3a6 6 0 0 1-.4 2.3 6 6 0 0 1-1.3 2 5.7 5.7 0 0 1-.9.6 8.1 8.1 0 0 1-.9.6l-.7.3a9.7 9.7 0 0 0-.4.2l-1.3-2 .8-.3.9-.6c.2-.2.5-.4.6-.7.2-.3.3-.7.3-1a2.7 2.7 0 0 1-1.7-.6 2 2 0 0 1-.7-1.7M94.5 278.5l-.1.9a2.4 2.4 0 0 1-.5.8 2.6 2.6 0 0 1-2 .8 3.4 3.4 0 0 1-1.3-.3 3 3 0 0 1-1-.7 3.1 3.1 0 0 1-.6-1 4 4 0 0 1-.2-1.3c0-.9.2-1.7.5-2.4a6 6 0 0 1 1.3-1.9 5.5 5.5 0 0 1 .8-.7 8.8 8.8 0 0 1 .9-.5 13.6 13.6 0 0 1 1-.6l1.4 2a9.5 9.5 0 0 0-.8.4l-.9.5-.6.8c-.2.3-.3.6-.3 1 .6 0 1.2.2 1.7.6.5.4.7.9.7 1.6m-7.8 0a2.5 2.5 0 0 1-.7 1.7 2.6 2.6 0 0 1-.8.6l-1.1.2a3.4 3.4 0 0 1-1.3-.3 3 3 0 0 1-1-.7 3 3 0 0 1-.6-1 4 4 0 0 1-.2-1.3c0-.9.1-1.7.4-2.4a6 6 0 0 1 1.3-1.9l.9-.7a9.4 9.4 0 0 1 1.6-.9c.2 0 .3-.1.3-.2l1.4 2-.8.4-.9.5a3 3 0 0 0-.7.8l-.3 1c.7 0 1.3.2 1.8.6.4.4.7.9.7 1.6M332 335.4h3.9l11.8-20.6h-3.8zm-.1 1.5c-1.3 0-2.2 1-2.2 2.2s1 2.2 2.2 2.2c1.2 0 2.2-1 2.2-2.2s-1-2.2-2.2-2.2m-26.4-5.5l1.1-2c4.4-6 7.3-4.3 6-2l-1.8 3c-1.2 2-4.5 3.4-5.3 1m25.1 3c-.2-.6-.9-1.2-1.4-1.4l-.3.3a23.6 23.6 0 0 1-4.5 4.1c1.2-3.6 1-9.1 3.3-14l-2.9-1.5c-1.5 2.2-5 7.1-8.4 11.1l-.2.3c-2.8 3.2-5.4 5.7-7.1 5.7-.8 0-1.6-.9-1.6-2.6V335c2.6.3 5.4-1.4 7.2-4.5l1-1.8c3.5-6-2.2-8-6-4.5l5.3-9.3h-3.8l-10.7 18.7a3 3 0 0 0-.7-.5l-.3.3c-2.7 3.2-6.2 5.7-8.8 5.7-2.4 0-3.7-1.5-2-4.5l3.9-6.8c2.2-3.7 6-3.1 3.8.8l-.6 1h3.1l.6-1c2-3.5 0-6-3-6a8 8 0 0 0-7.1 4.3l-3.8 6.4-.2-.2-.3.3c-2.7 3.2-5.3 5.7-7 5.7-.8 0-1.3-.6-.4-2l8-14.2H282l-6.7 11.7c-2.8 2.6-5 4-5.8 3.8-1-.4 0-1.9.5-2.7l7.4-12.8h-3.8l-7.4 12.7c-.8.7-2.4 1.4-3.1 2 1.2-3.7.9-9.2 3.2-14l-2.8-1.6a501 501 0 0 1-13.7 17.7c.3.5.9 1 1.4 1.3 2.2-2.4 9.4-11.7 10.7-13.5-1.5 4-.7 11-4.3 11-1.3 0-1.8-1.4-1.8-1.4l-2.3 1.3s.7 3 4.1 3h1l.2-.1a16 16 0 0 0 6.3-2.4c0 1.6 1 2.5 2.5 2.5 2.1 0 4.4-1.9 6.2-3.6-.3 2 .9 3.6 3.3 3.6 2.3 0 5-1.9 7.4-4.4 0 2.6 2 4.4 5.1 4.4 3.1 0 6.1-1.7 8.8-4l-2.1 3.6h3.8l4.3-7.5v3c0 3.3.6 5 3.7 5s6.7-3.4 9.8-7v-.1c2.2-2.4 4-5 5.4-6.9-1.5 4-.7 11-4.3 11-1.2 0-1.7-1.4-1.7-1.4l-2.4 1.3s.7 3 4.1 3h1.1l.1-.1c3.9-.5 7.7-3.6 10.5-6.9m-114.6-1h-.2c-1.2 0-2.2 1-2.2 2.2 0 .5.2 1 .4 1.3-1.8 3-6.2 2.5-4-1.4l3-5 1.8-3c2.6-4.6 6.3-2.8 4 1.1zm-25.4 14c-.8 1.5-2 1.3-2 .3s.8-2.1 3.7-3.3zm-28.8-13.7c-2.2 3.6-4.5 5.4-6 5.4-.9 0-1.4-.6-.5-2.1l5.3-9.2c2-3.5 6-2.6 4.2.8zm-12-14.7c1.1-2 2.3-2.8 3.4-2.8 1.4 0 2 1 2 2.4 0 3.5-4.3 10.8-10.1 9.8h-.8zm92.8 14l-.3.4c-2.7 3.1-5.4 5.7-7 5.7-.9 0-1.3-.6-.5-2.1l5.5-9.6c1.6-2.8 0-5-2-5-1.7 0-3.4 1-5.3 3l1.4-2.6h-3.8l-6 10.6a2.8 2.8 0 0 0-.5-.3l-.3.3a8.1 8.1 0 0 1-5.7 2.8l3.6-6.2c2.3-4 .2-7.7-3.4-7.7-3 0-5.2 1.2-7.3 5l-1.9 3.2-1.6 2.8a2.5 2.5 0 0 0-.4-.2l-.2.3c-3.1 3.6-5.8 6-8.8 7.2l10.4-17.7h-3.8l-6.7 11.6c-2.9 2.7-5.1 4.2-5.9 3.8-.9-.4 0-1.8.5-2.6l7.4-12.8h-3.8l-6 10.4a2.5 2.5 0 0 0-.3-.2l-.3.3c-2.7 3.1-5.4 5.7-7 5.7-.9 0-1.4-.6-.5-2.1l5.5-9.6c1.6-2.8 0-5-2-5-1.7 0-3.4 1-5.3 3l1.4-2.5H178l-6 10.4a2.6 2.6 0 0 0-.4-.2l-.2.3c-2.7 3.1-5.4 5.7-7 5.7-.9 0-1.4-.6-.5-2.1l6.1-10.7h-2.1c.1-1.6-1.5-3.8-4-3.8-2 0-4.9 1.6-6.5 4.3l-3.9 6.8-.8-.5-.2.3c-2.8 3.1-4.9 5.7-8.6 5.7-2.6 0-4.1-2.6-1.9-6.5l1-1.8 2.2.2c4 0 8.6-2.1 11.6-7.3 1-1.9 1.5-3.6 1.5-5.1 0-3.4-2.2-5.6-5-5.6-2 0-4.5 1.4-6.2 4.4l-6 10.1a6 6 0 0 1-3.3-5.3 6 6 0 0 1 2.4-4.8l-1.2-2.2a8.6 8.6 0 0 0-3.9 7c0 3 1.7 6 4.8 7.6l-1.2 2c-2.6 4.5-1 9.6 4.3 9.6 4.2 0 6-1.9 8.7-4.4-.9 2.4.3 4.4 3 4.4 1.5 0 3.4-1 5.2-2.5.2 1.5 1.4 2.5 3.3 2.5 1.8 0 3.8-1.1 5.7-2.8l-1.4 2.4h3.9l5.7-10c5.8-7.3 8.4-6.3 6.8-3.5l-5 8.5c-1.5 2.8-.4 5.4 2.6 5.4 2 0 4.3-1.4 6.5-3.4-.5 2 .5 3.4 2.4 3.4 1.8 0 3.8-1.5 5.6-3l-2.1 3.5c-5.1 1.5-8.3 3.6-8.3 6.5 0 3.6 5.5 4.4 8.2-.3l3-5c3.1-1 6.2-3 9.5-6.1-.5 5.2 6.5 6.4 10.7 1h.9a11 11 0 0 0 4.9-1.4L220 341h3.9l5.7-10c5.8-7.3 8.4-6.3 6.8-3.5l-5 8.5c-1.5 2.8-.4 5.4 2.6 5.4 3.2 0 6.8-3.4 9.9-7-.3-.5-1-1-1.4-1.3m118.6-35.6c-2.3 3.8-4.6 5.5-6.2 5.5-.9 0-1.3-.5-.5-2l5.3-9.2c2-3.5 6-2.6 4.2.8zm-36.2.2c-2.3 3.6-4.5 5.3-6.1 5.3-.8 0-1.3-.5-.4-2l5.2-9.2c2-3.5 6.1-2.6 4.2.8zm-40 13.8c-.7 1.4-2 1.2-2 .2s.9-2.2 3.8-3.3zm8.1-28.5c1.1-2 2.4-2.8 3.4-2.8 6 0 1.6 14.5-8 12.2h-.8zm77.7 14l-.3.4c-2.7 3.1-5.3 5.6-7 5.6-.9 0-1.3-.5-.5-2l12.8-22.2h-3.7l-5.6 9.6c-.7-1-1.9-2-3.5-2-2 0-4.8 1.7-6.4 4.4l-3.7 6.4-.3-.1-.2.3c-2.7 3.1-5 5.6-6.7 5.6-.8 0-1.3-.5-.4-2l5.4-9.6c1.7-2.9.1-5-2-5-1.6 0-3.3 1-5.2 3l1.4-2.6H341l-6 10.5a2.7 2.7 0 0 0-.4-.2l-.3.3c-2.7 3.1-5.3 5.6-7 5.6-.8 0-1.3-.5-.4-2l6-10.7h-2c0-1.6-1.6-3.8-4-3.8-2 0-4.9 1.6-6.5 4.3l-3.7 6.3-.2.3c-2.7 3.1-5.7 5.6-7.4 5.6-.8 0-1.3-.5-.4-2l3.8-6.6c1.3-2.3.7-3.7-.6-5.2l-2-2.5c-.6-.7-.6-1.5.1-2.2l-2-2.1c-2 1.9-2.3 4-1 5.8l.4.4c-1.7 2.4-4 5.6-6.4 8.5l.3.3a25 25 0 0 1-8.8 7.2l4.8-8.2h-3.7l-.4.6c-2 3.5-4.3 6-7.3 6-2.5 0-3-2.5-.8-6.4l1-1.8a13.6 13.6 0 0 0 2.2.1c13.5 0 20-18 8.1-18-2 0-4.5 1.5-6.2 4.5l-5.9 10.1a6 6 0 0 1-3.4-5.4 6 6 0 0 1 2.5-4.7l-1.3-2.2a8.6 8.6 0 0 0-3.9 7c0 3 1.7 6 4.8 7.5l-1.1 2c-2.7 4.6-2.2 9.7 3.1 9.7 1.6 0 3-.5 4.1-1.2l-1 1.7c-5 1.5-8.2 3.6-8.2 6.4 0 3.7 5.5 4.4 8.2-.2l3-5c3.9-1.2 7.7-4 11.9-8.7a2.2 2.2 0 0 0-.3-.4c1.7-2 3.1-3.8 6-7.7l.5.6c.5.6.6 1.4.2 2.2l-4 6.9c-1.6 2.8-.5 5.4 2.6 5.4 1.9 0 4.3-1.3 6.4-3 0 1.7 1.1 3 3.3 3 1.5 0 3.4-1 5.2-2.5.2 1.4 1.4 2.5 3.3 2.5 1.8 0 3.8-1.2 5.7-2.8l-1.4 2.4h3.8l5.8-10c5.8-7.3 8.4-6.3 6.7-3.6L342 300c-1.6 2.8-.5 5.4 2.6 5.4 2 0 3.8-1.4 6-3.4-.2 2 1 3.4 3.3 3.4 1.5 0 3.4-1 5.2-2.5.2 1.4 1.3 2.5 3.3 2.5 3 0 6.7-3.4 9.8-7-.3-.5-1-1.1-1.4-1.3m-112.3-5.3c2.2-3.8 6-3.1 3.8.8l-.6 1c-1.8 3-4.2 3-5.6 2.4zm-3 13.6c4.2 0 8.5-3.4 11.6-7-.2-.5-.9-1.1-1.4-1.3l-.3.3c-2.7 3.1-6.2 5.6-8.8 5.6-2.3 0-3.7-1.4-2-4.5l.4-.6c2.4 1 7 .5 9.8-4.4l.6-1c2-3.4 0-6-3-6a8 8 0 0 0-7.1 4.3l-3.7 6.3h-.1l-.3.3c-2.7 3.1-5.4 5.6-7 5.6-.9 0-1.3-.5-.5-2l5.5-9.6c1.6-2.9 0-5-2-5-1.7 0-3.4 1-5.3 3l6-10.6h-3.8l-10.6 18.5a2.5 2.5 0 0 0-.4-.2l-.3.3c-2.7 3.1-5.4 5.6-7 5.6-.9 0-1.4-.5-.5-2l8.1-14.2h3.1l1-1.8h-3l3.5-6.2h-3.7l-3.6 6.2h-3.4l-1.1 1.8h3.4L222 300c-1.6 2.8-.4 5.4 2.6 5.4 1.9 0 4-1.2 6-3l-1.5 2.6h3.8l5.7-10c5.8-7.3 8.4-6.3 6.8-3.5l-5 8.5c-1.5 2.8-.4 5.4 2.7 5.4 2.2 0 4.8-1.8 7.2-4.2.1 2.4 2 4.2 5.2 4.2M128 291.7c2.2-3.8 6-3.1 3.8.8l-.6 1c-1.8 3-4.2 3-5.7 2.4zm23.1 9.2l5.3-9.2c2-3.5 6-2.6 4.2.8l-3 5.1c-2.3 3.6-4.5 5.3-6 5.3-.9 0-1.4-.5-.5-2m54-9.2c2.2-3.8 6-3.1 3.8.8l-.6 1c-1.8 3-4.2 3-5.7 2.4zm-57.8 9.5c-.7 2.2.5 4 3.1 4 1.5 0 3.4-1 5.2-2.4.2 1.4 1.4 2.5 3.3 2.5 2 0 4.2-1.4 6.4-3.4-.4 2 .5 3.4 2.4 3.4 2 0 4.4-2 6.2-3.7-.4 2 .8 3.7 3.2 3.7 3.1 0 6.7-3.4 9.9-7l-.1-.2c2-2.4 3.9-5 5.2-6.7-1.5 4-.7 11-4.3 11-1.2 0-1.8-1.4-1.8-1.4l-2.3 1.2s.7 3 4.1 3h1.2c2.8-.4 5.5-2.1 7.9-4.2 0 2.4 2 4.3 5.1 4.3 4.3 0 8.6-3.4 11.7-7-.3-.5-1-1.1-1.4-1.3l-.3.3c-2.7 3.1-6.2 5.6-8.8 5.6-2.4 0-3.7-1.4-2-4.5l.4-.6c2.4 1 7 .5 9.8-4.4l.5-1c2-3.4.1-6-3-6a8 8 0 0 0-7 4.3l-3.7 6.3h-.1l-.3.3a23.6 23.6 0 0 1-4.5 4c1.2-3.5 1-9 3.3-13.9l-2.9-1.5c-1.5 2.1-5 7-8.4 11l.1.2-.1.2c-2.7 3.1-5.4 5.6-7 5.6-.9 0-1.4-.5-.5-2l8-14.2h-3.7l-6.7 11.8c-2.9 2.6-5.1 4-5.8 3.7-1-.4 0-1.8.4-2.6l7.4-12.9h-3.8l-6 10.4-.3-.1-.2.3c-2.7 3.1-5.4 5.6-7 5.6-.9 0-1.4-.5-.5-2l6.1-10.7h-2.1c.1-1.6-1.5-3.8-4-3.8-2 0-4.9 1.6-6.5 4.3l-3.8 6.6a2.8 2.8 0 0 0-.6-.3l-.2.3c-2.8 3.1-5.9 5.6-8.5 5.6-2.4 0-3.7-1.4-2-4.5l3.9-6.7c2.2-3.8 6-3.2 3.8.8l-.6 1h3.1l.6-1c2-3.5 0-6.1-3-6.1-3.1 0-5.2 1.6-6.8 4.3l-3.7 6.5a2.4 2.4 0 0 0-.4-.2l-.2.3c-2.8 3.1-6 5.6-8.6 5.6-2.4 0-3.8-1.4-2-4.5l.4-.6c2.4 1 7 .5 9.8-4.4l.5-1c2-3.4.1-6-3-6a8 8 0 0 0-7 4.3l-4 6.8c-2.4 4-.3 7.8 4.1 7.8 3.4 0 6-2 8.8-4.7 0 2.7 1.9 4.7 5.1 4.7 3.1 0 5.8-1.8 8.5-4m-36.9-14l3-5.3c2.8-4.7 6.3-2 4.4 1.6-1.4 2.7-3.5 3.6-7.4 3.6m-4 17.3c-2.3 0-4.1-.5-5.5-1.3l1.9-2.7 6.3-11h1c9 2 5.4 15-3.8 15m9.4-15.5c7.6-2.6 8.2-12.1.7-12.1-2.1 0-4.6 1.4-6.3 4.4L100 298.9a14.6 14.6 0 0 1-1.4 2.1c-2.6-3.6-1.9-9 1.8-11.3l-1.5-2c-8 5.1-5.6 19.7 7.6 19.7 11.3 0 16.5-13.6 9.3-18.4"/></svg>